<?xml version="1.0" encoding="UTF-8" standalone="no"?>
<!-- Created with Inkscape (http://www.inkscape.org/) -->

<svg
   width="128"
   height="128"
   viewBox="0 0 33.866667 33.866667"
   version="1.1"
   id="svg1"
   xmlns:xlink="http://www.w3.org/1999/xlink"
   xmlns="http://www.w3.org/2000/svg"
   xmlns:svg="http://www.w3.org/2000/svg">
  <defs
     id="defs1">
    <linearGradient
       id="linearGradient3">
      <stop
         style="stop-color:#53676c;stop-opacity:1;"
         offset="0"
         id="stop3" />
      <stop
         style="stop-color:#dbe2e3;stop-opacity:1"
         offset="1"
         id="stop4" />
    </linearGradient>
    <rect
       x="32.646725"
       y="35.614609"
       width="55.895149"
       height="49.464733"
       id="rect2" />
    <linearGradient
       xlink:href="#linearGradient3"
       id="linearGradient4"
       x1="22.512825"
       y1="13.762887"
       x2="18.891935"
       y2="18.910654"
       gradientUnits="userSpaceOnUse" />
    <linearGradient
       xlink:href="#linearGradient3"
       id="linearGradient5"
       gradientUnits="userSpaceOnUse"
       x1="22.512825"
       y1="13.762887"
       x2="18.891935"
       y2="18.910654" />
    <filter
       style="color-interpolation-filters:sRGB;"
       id="filter34"
       x="-0.03238995"
       y="-0.089313227"
       width="1.0850236"
       height="1.2344472">
      <feFlood
         result="flood"
         in="SourceGraphic"
         flood-opacity="0.501961"
         flood-color="rgb(0,0,0)"
         id="feFlood33" />
      <feGaussianBlur
         result="blur"
         in="SourceGraphic"
         stdDeviation="0.200000"
         id="feGaussianBlur33" />
      <feOffset
         result="offset"
         in="blur"
         dx="0.300000"
         dy="0.300000"
         id="feOffset33" />
      <feComposite
         result="comp1"
         operator="in"
         in="flood"
         in2="offset"
         id="feComposite33" />
      <feComposite
         result="comp2"
         operator="over"
         in="SourceGraphic"
         in2="comp1"
         id="feComposite34" />
    </filter>
    <filter
       style="color-interpolation-filters:sRGB;"
       id="filter38"
       x="-0.066603078"
       y="-0.066603078"
       width="1.1332062"
       height="1.1887087">
      <feFlood
         result="flood"
         in="SourceGraphic"
         flood-opacity="0.501961"
         flood-color="rgb(0,0,0)"
         id="feFlood37" />
      <feGaussianBlur
         result="blur"
         in="SourceGraphic"
         stdDeviation="0.500000"
         id="feGaussianBlur37" />
      <feOffset
         result="offset"
         in="blur"
         dx="0.000000"
         dy="1.000000"
         id="feOffset37" />
      <feComposite
         result="comp1"
         operator="in"
         in="flood"
         in2="offset"
         id="feComposite37" />
      <feComposite
         result="comp2"
         operator="over"
         in="SourceGraphic"
         in2="comp1"
         id="feComposite38" />
    </filter>
  </defs>
  <g
     id="layer1">
    <path
       style="fill:url(#linearGradient4);fill-opacity:1;stroke-width:0.264583"
       d="m 19.23869,7.5907756 c 1.61413,1.8467978 3.228228,3.6935584 4.064393,5.6930844 0.836166,1.999527 0.894331,4.151657 0.952498,6.303831 -1.759547,-0.785253 -3.51906,-1.57049 -4.355225,-3.570015 C 19.064191,14.01815 19.15144,10.804495 19.23869,7.5907756 Z"
       id="path2-8"
       transform="matrix(-1.3365696,0,0,1.3365696,34.297402,-2.9712372)" />
    <path
       style="fill:url(#linearGradient5);fill-opacity:1;stroke-width:0.264583"
       d="m 19.23869,7.5907756 c 1.61413,1.8467978 3.228228,3.6935584 4.064393,5.6930844 0.836166,1.999527 0.894331,4.151657 0.952498,6.303831 -1.759547,-0.785253 -3.51906,-1.57049 -4.355225,-3.570015 C 19.064191,14.01815 19.15144,10.804495 19.23869,7.5907756 Z"
       id="path2-8-1"
       transform="matrix(1.3365696,0,0,1.3365696,-0.08260809,-3.7080486)" />
    <rect
       style="fill:#ffff00;stroke-width:0.353634;filter:url(#filter38)"
       id="rect1"
       width="18.017185"
       height="18.017185"
       x="8.1140852"
       y="5.4531436" />
    <path
       style="font-weight:bold;font-size:31.9225px;font-family:'Trebuchet MS';-inkscape-font-specification:'Trebuchet MS Bold';white-space:pre"
       d="m 32.911466,59.376679 h 3.616221 q 0.514376,1.995156 3.335652,1.995156 1.995156,0 2.805688,-1.293734 0.82612,-1.293734 0.82612,-3.927964 V 41.825538 h 4.052661 V 56.02544 q 0,4.55145 -1.932808,6.749239 -1.932807,2.19779 -6.203689,2.19779 -2.836863,0 -4.582624,-1.48078 -1.745762,-1.48078 -1.917221,-4.11501 z m 17.987581,4.021487 1.496368,-3.631808 q 2.400422,1.683413 4.722909,1.683413 3.569459,0 3.569459,-2.493946 0,-1.169036 -0.841707,-2.228963 Q 59.00437,55.666935 56.37014,54.357614 53.751497,53.032705 52.831855,52.190999 51.9278,51.333705 51.429011,50.164668 50.945809,48.995631 50.945809,47.5772 q 0,-2.649817 1.932808,-4.395579 1.948394,-1.745762 4.98789,-1.745762 3.959139,0 5.81401,1.48078 l -1.231385,3.491524 q -2.135441,-1.527542 -4.504689,-1.527542 -1.402844,0 -2.182202,0.748184 -0.763771,0.732596 -0.763771,1.91722 0,1.963982 4.348817,4.083836 2.291313,1.122275 3.304478,2.073092 1.013165,0.93523 1.543129,2.197789 0.529963,1.246973 0.529963,2.790102 0,2.774514 -2.197789,4.567037 -2.182202,1.792523 -5.860772,1.792523 -3.195367,0 -5.767249,-1.652238 z"
       id="text1"
       transform="matrix(0.35363403,0,0,0.35363403,1.9334326,-0.96074165)"
       aria-label="JS" />
    <path
       d="m 2.1783894,15.500309 v 0.945333 h 1.33394 v 0.609092 h -1.33394 v 1.209917 h 1.8300334 v 0.636653 H 1.4618101 v -4.037649 h 2.5769295 v 0.636654 z m 2.5714174,-0.650434 0.6890186,-0.165364 v 3.318313 q 0,0.545703 0.3252168,0.650434 -0.1598523,0.303168 -0.5457027,0.303168 -0.4685327,0 -0.4685327,-0.650434 z m 2.8525369,4.525474 q -0.110243,0.2949 -0.4740448,0.487825 -0.3610458,0.195681 -0.8433588,0.195681 v -0.609092 q 0.7965055,0 0.7965055,-0.399631 0,-0.264583 -0.2204859,-0.810286 L 5.9376748,15.949549 H 6.651498 l 0.8047737,2.039495 0.7248476,-2.039495 H 8.8949425 Z M 9.4130844,16.50352 H 9.0713312 v -0.553971 h 0.3417532 v -0.600825 l 0.6890186,-0.253558 v 0.854383 h 0.810286 v 0.553971 h -0.810286 v 1.292598 q 0,0.316949 0.09922,0.449241 0.09922,0.129535 0.347265,0.129535 0.248047,0 0.463021,-0.135048 v 0.633898 q -0.239779,0.08268 -0.683507,0.08268 -0.4409718,0 -0.6779942,-0.248047 -0.2370224,-0.250803 -0.2370224,-0.711067 z m 3.8392116,0.08819 q -0.184657,-0.121267 -0.405143,-0.121267 -0.239778,0 -0.427191,0.21773 -0.184657,0.217729 -0.184657,0.531922 v 1.681205 h -0.689019 v -2.951755 h 0.689019 v 0.270095 q 0.289388,-0.325217 0.768945,-0.325217 0.352777,0 0.54019,0.107487 z m 2.171787,2.01469 q -0.09371,0.15434 -0.327973,0.253559 -0.23151,0.09646 -0.485069,0.09646 -0.476801,0 -0.749652,-0.237023 -0.272852,-0.239778 -0.272852,-0.677994 0,-0.51263 0.383095,-0.802018 0.38585,-0.289387 1.094161,-0.289387 0.121267,0 0.286632,0.04134 0,-0.520898 -0.658702,-0.520898 -0.388606,0 -0.650434,0.129535 l -0.148828,-0.534678 q 0.355534,-0.170877 0.846115,-0.170877 0.675238,0 0.989431,0.308681 0.314192,0.305924 0.314192,1.163063 v 0.631141 q 0,0.5898 0.237023,0.741384 -0.08544,0.148828 -0.190169,0.181901 -0.104731,0.03583 -0.239779,0.03583 -0.148828,0 -0.267339,-0.110243 -0.118511,-0.110243 -0.159852,-0.239779 z m -0.06615,-1.094161 q -0.176389,-0.03583 -0.264583,-0.03583 -0.815798,0 -0.815798,0.534678 0,0.396875 0.460264,0.396875 0.620117,0 0.620117,-0.620117 z"
       id="text3"
       style="font-weight:bold;font-size:5.64444px;font-family:'Trebuchet MS';-inkscape-font-specification:'Trebuchet MS Bold';fill:#53676c;stroke-width:0.353634;filter:url(#filter34)"
       transform="rotate(-29.897185)"
       aria-label="Elytra" />
  </g>
</svg>
